# xmcd
#
# Track frame offsets: 
#        150
#        11669
#        23996
#        36557
#        50154
#        67554
#        86671
#        100528
#        113896
#        131997
#        150273
#        165851
#        182848
#        206065
#        220113
#        236760
#        255739
#
# Disc length: 3556 seconds
#
# Revision: 0
# Processed by: cddbd v1.5.1PL2 Copyright (c) Steve Scherf et al.
# Submitted via: ExactAudioCopy v0.95a5
#
DISCID=e30de211
DTITLE=Backdoor Blues Band - worried mind
DYEAR=2005
DGENRE=Blues
TTITLE0=going to the drugstore
TTITLE1=hooching and cooching
TTITLE2=fast life
TTITLE3=crying won't make me stay
TTITLE4=moving into arkansas
TTITLE5=20%
TTITLE6=oh oh oh
TTITLE7=thundergirl
TTITLE8=chain gang
TTITLE9=cheap girl
TTITLE10=gangster blues
TTITLE11=gas station drinkers
TTITLE12=making money
TTITLE13=she's an artist
TTITLE14=waiting
TTITLE15=worried mind
TTITLE16=mighty long time
EXTD=
EXTT0=
EXTT1=
EXTT2=
EXTT3=
EXTT4=
EXTT5=
EXTT6=
EXTT7=
EXTT8=
EXTT9=
EXTT10=
EXTT11=
EXTT12=
EXTT13=
EXTT14=
EXTT15=
EXTT16=
PLAYORDER=
